<?xml version="1.0" standalone="no"?>
<!DOCTYPE svg PUBLIC "-//W3C//DTD SVG 20010904//EN"
 "http://www.w3.org/TR/2001/REC-SVG-20010904/DTD/svg10.dtd">
<svg version="1.0" xmlns="http://www.w3.org/2000/svg"
 width="512.000000pt" height="512.000000pt" viewBox="0 0 512.000000 512.000000"
 preserveAspectRatio="xMidYMid meet">
<metadata>
Created by potrace 1.14, written by Peter Selinger 2001-2017
</metadata>
<g transform="translate(0.000000,512.000000) scale(0.100000,-0.100000)"
fill="#000000" stroke="none">
<path d="M1760 5090 c0 -16 5 -30 10 -30 6 0 10 -7 10 -16 0 -9 14 -29 30 -44
l30 -28 0 -144 c0 -132 -2 -145 -20 -158 -11 -8 -20 -22 -20 -32 0 -17 -31
-18 -580 -18 -380 0 -580 -3 -580 -10 0 -5 -7 -10 -15 -10 -20 0 -65 -45 -65
-65 0 -8 -4 -15 -10 -15 -6 0 -10 -107 -10 -300 0 -193 4 -300 10 -300 6 0 10
-7 10 -15 0 -20 45 -65 65 -65 8 0 15 -4 15 -10 0 -7 193 -10 558 -10 546 0
558 0 572 -20 8 -11 22 -20 32 -20 10 0 18 -4 18 -10 0 -6 37 -10 90 -10 l90
0 0 -30 c0 -16 5 -30 10 -30 6 0 10 -39 10 -96 0 -118 -5 -124 -94 -124 -37 0
-66 -4 -66 -10 0 -5 -7 -10 -16 -10 -9 0 -29 -13 -44 -30 -15 -16 -35 -30 -44
-30 -9 0 -16 -4 -16 -10 0 -7 -190 -10 -550 -10 -360 0 -550 -3 -550 -10 0 -5
-7 -10 -15 -10 -20 0 -65 -45 -65 -65 0 -8 -4 -15 -10 -15 -6 0 -10 -37 -10
-90 0 -53 4 -90 10 -90 6 0 10 -7 10 -15 0 -20 45 -65 65 -65 8 0 15 -4 15
-10 0 -6 53 -10 140 -10 87 0 140 -4 140 -10 0 -5 7 -10 15 -10 9 0 31 -16 50
-35 34 -33 35 -37 35 -110 0 -43 -4 -75 -10 -75 -5 0 -10 -9 -10 -20 0 -11 -4
-20 -10 -20 -6 0 -10 -67 -10 -180 0 -113 4 -180 10 -180 6 0 10 -7 10 -15 0
-20 45 -65 65 -65 8 0 15 -4 15 -10 0 -6 27 -10 60 -10 33 0 60 4 60 10 0 6 7
10 15 10 9 0 65 50 125 110 60 61 115 110 122 110 8 0 20 9 28 20 8 11 22 20
32 20 10 0 18 5 18 10 0 6 7 10 15 10 9 0 51 36 95 80 44 44 84 80 90 80 6 0
60 49 120 110 60 60 115 110 122 110 8 0 20 9 28 20 8 11 22 20 32 20 10 0 18
5 18 10 0 6 67 10 180 10 113 0 180 -4 180 -10 0 -5 9 -10 20 -10 11 0 20 -4
20 -10 0 -5 23 -10 50 -10 28 0 50 5 50 10 0 6 7 10 15 10 20 0 65 45 65 65 0
8 5 15 10 15 6 0 10 14 10 30 0 17 5 30 10 30 6 0 10 12 10 26 0 40 22 54 84
54 31 0 56 5 56 10 0 6 7 10 15 10 9 0 31 16 50 35 19 19 35 41 35 50 0 8 5
15 10 15 6 0 10 14 10 30 0 17 5 30 10 30 6 0 10 9 10 20 0 11 5 20 10 20 6 0
10 14 10 30 0 17 5 30 10 30 6 0 10 14 10 30 0 17 5 30 10 30 6 0 10 9 10 20
0 11 5 20 10 20 6 0 10 14 10 30 0 17 5 30 10 30 6 0 10 9 10 20 0 11 5 20 10
20 6 0 10 14 10 30 0 17 5 30 10 30 6 0 10 9 10 20 0 11 5 20 10 20 6 0 10 14
10 30 0 17 5 30 10 30 6 0 10 23 10 50 0 28 -4 50 -10 50 -5 0 -10 7 -10 15 0
9 -11 27 -25 40 -13 14 -31 25 -40 25 -11 0 -15 11 -15 40 0 22 5 40 10 40 6
0 10 9 10 20 0 11 5 20 10 20 6 0 10 14 10 30 0 17 5 30 10 30 6 0 10 14 10
30 0 17 5 30 10 30 6 0 10 9 10 20 0 11 5 20 10 20 6 0 10 14 10 30 0 17 5 30
10 30 6 0 10 9 10 20 0 11 5 20 10 20 6 0 10 14 10 30 0 17 5 30 10 30 15 0
13 137 -2 144 -10 5 -10 7 0 12 6 3 12 14 12 25 0 10 5 19 10 19 6 0 10 14 10
30 0 17 5 30 10 30 6 0 10 9 10 20 0 11 5 20 10 20 6 0 10 14 10 30 0 17 5 30
10 30 6 0 10 14 10 30 0 17 5 30 10 30 6 0 10 9 10 20 0 11 5 20 10 20 6 0 10
9 10 20 0 11 5 20 10 20 6 0 10 8 10 18 0 10 9 24 20 32 11 8 20 22 20 32 0
10 5 18 10 18 6 0 10 14 10 30 l0 30 -820 0 -820 0 0 -30z"/>
<path d="M3880 5090 c0 -16 5 -30 10 -30 6 0 10 -7 10 -16 0 -9 14 -29 30 -44
17 -15 30 -35 30 -44 0 -9 5 -16 10 -16 6 0 10 -9 10 -20 0 -11 5 -20 10 -20
6 0 10 -9 10 -20 0 -11 5 -20 10 -20 6 0 10 -13 10 -30 0 -16 5 -30 10 -30 6
0 10 -13 10 -30 0 -16 5 -30 10 -30 6 0 10 -9 10 -20 0 -11 5 -20 10 -20 6 0
10 -13 10 -30 0 -16 5 -30 10 -30 6 0 10 -9 10 -20 0 -11 5 -20 10 -20 6 0 10
-13 10 -30 0 -16 5 -30 10 -30 6 0 10 -7 10 -15 0 -20 65 -85 85 -85 10 0 15
-10 15 -30 0 -16 5 -30 10 -30 6 0 10 -9 10 -20 0 -11 5 -20 10 -20 6 0 10
-13 10 -30 0 -16 5 -30 10 -30 6 0 10 -13 10 -30 0 -16 5 -30 10 -30 6 0 10
-9 10 -20 0 -11 5 -20 10 -20 6 0 10 -13 10 -30 0 -16 5 -30 10 -30 6 0 10 -9
10 -20 0 -11 5 -20 10 -20 6 0 10 -13 10 -30 0 -16 5 -30 10 -30 6 0 10 -9 10
-20 0 -11 5 -20 10 -20 6 0 10 -13 10 -30 0 -16 5 -30 10 -30 6 0 10 -13 10
-30 0 -16 5 -30 10 -30 6 0 10 -7 10 -15 0 -20 45 -65 65 -65 8 0 15 -4 15
-10 0 -6 30 -10 70 -10 63 0 70 -2 70 -20 0 -11 5 -20 10 -20 6 0 10 -13 10
-30 0 -16 5 -30 10 -30 6 0 10 -13 10 -30 0 -16 5 -30 10 -30 6 0 10 -9 10
-20 0 -11 5 -20 10 -20 6 0 10 -13 10 -30 0 -16 5 -30 10 -30 6 0 10 -9 10
-20 0 -11 -7 -20 -15 -20 -20 0 -65 -45 -65 -65 0 -8 -4 -15 -10 -15 -6 0 -10
-30 -10 -70 0 -40 4 -70 10 -70 6 0 10 -9 10 -20 0 -11 5 -20 10 -20 6 0 10
-13 10 -30 0 -16 5 -30 10 -30 6 0 10 -13 10 -30 0 -16 5 -30 10 -30 6 0 10
-9 10 -20 0 -11 5 -20 10 -20 6 0 10 -13 10 -30 0 -16 5 -30 10 -30 6 0 10 -9
10 -20 0 -11 5 -20 10 -20 6 0 10 -13 10 -30 0 -16 5 -30 10 -30 6 0 10 -9 10
-20 0 -11 5 -20 10 -20 6 0 10 -13 10 -30 0 -16 5 -30 10 -30 6 0 10 -33 10
-80 0 -47 4 -80 10 -80 6 0 10 -9 10 -20 0 -11 5 -20 10 -20 6 0 10 -13 10
-30 0 -16 5 -30 10 -30 6 0 10 -35 10 -85 0 -78 -2 -88 -25 -110 -24 -24 -28
-25 -180 -25 -97 0 -155 4 -155 10 0 6 -7 10 -15 10 -20 0 -65 45 -65 65 0 8
-4 15 -10 15 -5 0 -10 9 -10 20 0 11 -4 20 -10 20 -5 0 -10 14 -10 30 0 17 -4
30 -10 30 -5 0 -10 9 -10 20 0 11 -4 20 -10 20 -5 0 -10 14 -10 30 0 17 -4 30
-10 30 -6 0 -10 33 -10 80 0 47 -4 80 -10 80 -5 0 -10 9 -10 20 0 11 -4 20
-10 20 -5 0 -10 7 -10 15 0 20 -45 65 -65 65 -8 0 -15 5 -15 10 0 7 -197 10
-570 10 -373 0 -570 -3 -570 -10 0 -5 -7 -10 -15 -10 -20 0 -145 -125 -145
-145 0 -8 -4 -15 -10 -15 -5 0 -10 -9 -10 -20 0 -11 -4 -20 -10 -20 -5 0 -10
-9 -10 -20 0 -11 -4 -20 -10 -20 -5 0 -10 -13 -10 -30 0 -16 -4 -30 -10 -30
-5 0 -10 -13 -10 -30 0 -16 -4 -30 -10 -30 -5 0 -10 -9 -10 -20 0 -11 -4 -20
-10 -20 -5 0 -10 -13 -10 -30 0 -16 -4 -30 -10 -30 -5 0 -10 -9 -10 -20 0 -11
-4 -20 -10 -20 -5 0 -10 -9 -10 -20 0 -11 -4 -20 -10 -20 -5 0 -10 -9 -10 -20
0 -11 -4 -20 -10 -20 -5 0 -10 -9 -10 -20 0 -11 -4 -20 -10 -20 -5 0 -10 -13
-10 -30 0 -16 -4 -30 -10 -30 -6 0 -10 -30 -10 -70 0 -40 -4 -70 -10 -70 -5 0
-10 -9 -10 -20 0 -11 -4 -20 -10 -20 -5 0 -10 -13 -10 -30 0 -16 -4 -30 -10
-30 -5 0 -10 -9 -10 -20 0 -11 -4 -20 -10 -20 -5 0 -10 -13 -10 -30 0 -16 -4
-30 -10 -30 -5 0 -10 -9 -10 -20 0 -11 -4 -20 -10 -20 -5 0 -10 -13 -10 -30 0
-16 -4 -30 -10 -30 -5 0 -10 -9 -10 -20 0 -11 -4 -20 -10 -20 -5 0 -10 -13
-10 -30 0 -16 -4 -30 -10 -30 -5 0 -10 -9 -10 -20 0 -11 -4 -20 -10 -20 -5 0
-10 -9 -10 -20 0 -11 -4 -20 -10 -20 -6 0 -10 -30 -10 -70 0 -40 4 -70 10 -70
6 0 10 -7 10 -15 0 -20 45 -65 65 -65 8 0 15 -4 15 -10 0 -5 14 -10 30 -10 17
0 30 -4 30 -10 0 -5 14 -10 30 -10 17 0 30 -4 30 -10 0 -5 14 -10 30 -10 17 0
30 -4 30 -10 0 -5 9 -10 20 -10 11 0 20 -4 20 -10 0 -5 14 -10 30 -10 17 0 30
-4 30 -10 0 -5 9 -10 20 -10 11 0 20 -4 20 -10 0 -5 14 -10 30 -10 17 0 30 -4
30 -10 0 -5 23 -10 50 -10 28 0 50 5 50 10 0 6 7 10 15 10 20 0 65 45 65 65 0
8 5 15 10 15 6 0 10 9 10 20 0 11 5 20 10 20 6 0 10 14 10 30 0 17 5 30 10 30
6 0 10 18 10 40 0 22 5 40 10 40 6 0 10 14 10 30 0 17 5 30 10 30 6 0 10 9 10
20 0 11 5 20 10 20 6 0 10 14 10 30 0 17 5 30 10 30 6 0 10 9 10 20 0 11 5 20
10 20 6 0 10 14 10 30 0 17 5 30 10 30 6 0 10 9 10 20 0 11 5 20 10 20 6 0 10
9 10 20 0 11 5 20 10 20 6 0 10 14 10 30 0 17 5 30 10 30 6 0 10 9 10 20 0 11
5 20 10 20 6 0 10 14 10 30 0 17 5 30 10 30 6 0 10 9 10 20 0 11 5 20 10 20 6
0 10 30 10 70 0 40 4 70 10 70 6 0 10 7 10 15 0 20 65 85 85 85 8 0 15 5 15
10 0 6 27 10 60 10 33 0 60 -4 60 -10 0 -5 9 -10 20 -10 11 0 20 -4 20 -10 0
-5 14 -10 30 -10 17 0 30 -4 30 -10 0 -5 7 -10 15 -10 26 0 85 -66 85 -95 0
-14 5 -25 10 -25 6 0 10 -9 10 -20 0 -11 5 -20 10 -20 6 0 10 -18 10 -40 0
-22 -4 -40 -10 -40 -5 0 -10 -9 -10 -20 0 -11 -4 -20 -10 -20 -5 0 -10 -13
-10 -30 0 -16 -4 -30 -10 -30 -5 0 -10 -9 -10 -20 0 -11 -4 -20 -10 -20 -5 0
-10 -13 -10 -30 0 -16 -4 -30 -10 -30 -5 0 -10 -9 -10 -20 0 -11 -4 -20 -10
-20 -5 0 -10 -13 -10 -30 0 -16 -4 -30 -10 -30 -5 0 -10 -9 -10 -20 0 -11 -4
-20 -10 -20 -5 0 -10 -13 -10 -30 0 -16 -4 -30 -10 -30 -5 0 -10 -9 -10 -20 0
-11 -4 -20 -10 -20 -5 0 -10 -22 -10 -50 0 -27 -4 -50 -10 -50 -5 0 -10 -9
-10 -20 0 -11 -4 -20 -10 -20 -5 0 -10 -13 -10 -30 0 -16 -4 -30 -10 -30 -5 0
-10 -9 -10 -20 0 -11 -4 -20 -10 -20 -5 0 -10 -13 -10 -30 0 -16 -4 -30 -10
-30 -5 0 -10 -9 -10 -20 0 -11 -4 -20 -10 -20 -5 0 -10 -9 -10 -20 0 -11 -4
-20 -10 -20 -6 0 -10 -33 -10 -80 0 -47 4 -80 10 -80 6 0 10 -7 10 -15 0 -20
45 -65 65 -65 8 0 15 -4 15 -10 0 -5 9 -10 20 -10 11 0 20 -4 20 -10 0 -5 14
-10 30 -10 17 0 30 -4 30 -10 0 -5 9 -10 20 -10 11 0 20 -4 20 -10 0 -5 14
-10 30 -10 17 0 30 -4 30 -10 0 -5 9 -10 20 -10 11 0 20 -4 20 -10 0 -5 14
-10 30 -10 17 0 30 -4 30 -10 0 -5 9 -10 20 -10 11 0 20 -4 20 -10 0 -6 30
-10 70 -10 40 0 70 4 70 10 0 6 7 10 15 10 20 0 65 45 65 65 0 8 5 15 10 15 6
0 10 9 10 20 0 11 5 20 10 20 6 0 10 9 10 20 0 11 5 20 10 20 6 0 10 14 10 30
0 17 5 30 10 30 6 0 10 9 10 20 0 11 5 20 10 20 6 0 10 14 10 30 0 17 5 30 10
30 6 0 10 9 10 20 0 11 5 20 10 20 6 0 10 9 10 20 0 11 5 20 10 20 6 0 10 14
10 30 0 17 5 30 10 30 6 0 10 9 10 20 0 11 5 20 10 20 6 0 10 14 10 30 0 17 5
30 10 30 6 0 10 9 10 20 0 11 5 20 10 20 6 0 10 23 10 50 0 28 5 50 10 50 6 0
10 9 10 20 0 11 5 20 10 20 6 0 10 14 10 30 0 17 5 30 10 30 6 0 10 9 10 20 0
11 5 20 10 20 6 0 10 14 10 30 0 17 5 30 10 30 6 0 10 9 10 20 0 11 5 20 10
20 6 0 10 14 10 30 0 17 5 30 10 30 6 0 10 9 10 20 0 11 5 20 10 20 6 0 10 7
10 15 0 20 65 85 85 85 8 0 15 5 15 10 0 6 23 10 50 10 28 0 50 -4 50 -10 0
-5 14 -10 30 -10 17 0 30 -4 30 -10 0 -5 9 -10 20 -10 11 0 20 -4 20 -10 0 -5
14 -10 30 -10 17 0 30 -4 30 -10 0 -5 18 -10 40 -10 l40 0 0 1630 0 1630 -620
0 -620 0 0 -30z"/>
<path d="M3660 4230 c0 -5 -7 -10 -15 -10 -9 0 -31 -16 -50 -35 -19 -19 -35
-41 -35 -50 0 -8 -4 -15 -10 -15 -5 0 -10 -13 -10 -30 0 -16 -4 -30 -10 -30
-5 0 -10 -9 -10 -20 0 -11 -4 -20 -10 -20 -5 0 -10 -13 -10 -30 0 -16 -4 -30
-10 -30 -5 0 -10 -22 -10 -50 0 -27 5 -50 10 -50 6 0 10 -7 10 -15 0 -20 45
-65 65 -65 11 0 15 -11 15 -40 0 -22 -4 -40 -10 -40 -5 0 -10 -9 -10 -20 0
-11 -4 -20 -10 -20 -5 0 -10 -13 -10 -30 0 -16 -4 -30 -10 -30 -5 0 -10 -9
-10 -20 0 -11 -4 -20 -10 -20 -6 0 -10 -27 -10 -60 0 -33 4 -60 10 -60 6 0 10
-7 10 -15 0 -20 45 -65 65 -65 8 0 15 -4 15 -10 0 -6 100 -10 280 -10 180 0
280 4 280 10 0 6 7 10 15 10 20 0 65 45 65 65 0 8 5 15 10 15 6 0 10 30 10 70
0 40 -4 70 -10 70 -5 0 -10 9 -10 20 0 11 -4 20 -10 20 -5 0 -10 14 -10 30 0
17 -4 30 -10 30 -5 0 -10 9 -10 20 0 11 -4 20 -10 20 -5 0 -10 14 -10 30 0 17
-4 30 -10 30 -5 0 -10 14 -10 30 0 17 -4 30 -10 30 -5 0 -10 9 -10 20 0 11 -4
20 -10 20 -5 0 -10 14 -10 30 0 17 -4 30 -10 30 -5 0 -10 7 -10 15 0 20 -45
65 -65 65 -8 0 -15 5 -15 10 0 6 -30 10 -70 10 l-70 0 0 30 c0 17 -4 30 -10
30 -5 0 -10 9 -10 20 0 11 -4 20 -10 20 -5 0 -10 7 -10 15 0 20 -45 65 -65 65
-8 0 -15 5 -15 10 0 6 -22 10 -50 10 -27 0 -50 -4 -50 -10z"/>
<path d="M0 3620 l0 -420 110 0 c67 0 110 4 110 10 0 6 7 10 15 10 20 0 65 45
65 65 0 8 5 15 10 15 6 0 10 113 10 320 0 207 -4 320 -10 320 -5 0 -10 7 -10
15 0 20 -45 65 -65 65 -8 0 -15 5 -15 10 0 6 -43 10 -110 10 l-110 0 0 -420z"/>
<path d="M2080 2450 c0 -5 -7 -10 -15 -10 -17 0 -245 -224 -245 -240 0 -13
-167 -180 -180 -180 -16 0 -300 -288 -300 -305 0 -8 -4 -15 -10 -15 -5 0 -10
-22 -10 -50 0 -27 5 -50 10 -50 6 0 10 -7 10 -15 0 -17 104 -125 120 -125 6 0
38 -27 70 -60 32 -33 64 -60 70 -60 6 0 33 -22 60 -50 27 -27 56 -50 64 -50 9
0 16 -4 16 -10 0 -6 27 -10 60 -10 33 0 60 4 60 10 0 6 7 10 15 10 20 0 65 45
65 65 0 8 5 15 10 15 6 0 10 9 10 20 0 11 5 20 10 20 6 0 10 23 10 50 0 28 5
50 10 50 6 0 10 14 10 30 0 17 5 30 10 30 6 0 10 9 10 20 0 11 5 20 10 20 6 0
10 14 10 30 0 17 5 30 10 30 6 0 10 9 10 20 0 11 5 20 10 20 6 0 10 9 10 20 0
11 5 20 10 20 6 0 10 14 10 30 0 17 5 30 10 30 6 0 10 9 10 20 0 11 5 20 10
20 6 0 10 14 10 30 0 17 5 30 10 30 6 0 10 9 10 20 0 11 5 20 10 20 6 0 10 14
10 30 0 17 5 30 10 30 6 0 10 9 10 20 0 11 5 20 10 20 6 0 10 14 10 30 0 17 5
30 10 30 6 0 10 30 10 70 0 40 4 70 10 70 6 0 10 9 10 20 0 11 5 20 10 20 6 0
10 27 10 60 0 33 -4 60 -10 60 -5 0 -10 7 -10 15 0 20 -45 65 -65 65 -8 0 -15
5 -15 10 0 6 -22 10 -50 10 -27 0 -50 -4 -50 -10z"/>
<path d="M0 1170 l0 -1170 2560 0 2560 0 0 700 0 700 -30 0 c-16 0 -30 -4 -30
-10 0 -5 -7 -10 -15 -10 -20 0 -65 -45 -65 -65 0 -8 -4 -15 -10 -15 -5 0 -10
-9 -10 -20 0 -11 -4 -20 -10 -20 -5 0 -10 -13 -10 -30 0 -16 -4 -30 -10 -30
-5 0 -10 -9 -10 -20 0 -11 -4 -20 -10 -20 -5 0 -10 -13 -10 -30 0 -16 -4 -30
-10 -30 -5 0 -10 -9 -10 -20 0 -11 -4 -20 -10 -20 -5 0 -10 -9 -10 -20 0 -11
-4 -20 -10 -20 -5 0 -10 -8 -10 -18 0 -10 -9 -24 -20 -32 -11 -8 -20 -22 -20
-32 0 -10 -4 -18 -10 -18 -5 0 -10 -13 -10 -30 0 -16 -4 -30 -10 -30 -5 0 -10
-9 -10 -20 0 -11 -4 -20 -10 -20 -5 0 -10 -13 -10 -30 0 -16 -4 -30 -10 -30
-5 0 -10 -9 -10 -20 0 -11 -4 -20 -10 -20 -5 0 -10 -9 -10 -20 0 -11 -4 -20
-10 -20 -5 0 -10 -13 -10 -30 0 -16 -4 -30 -10 -30 -5 0 -10 -9 -10 -20 0 -11
-4 -20 -10 -20 -5 0 -10 -13 -10 -30 0 -16 -4 -30 -10 -30 -5 0 -10 -9 -10
-20 0 -11 -4 -20 -10 -20 -5 0 -10 -13 -10 -30 0 -16 -4 -30 -10 -30 -5 0 -10
-9 -10 -20 0 -18 -7 -20 -70 -20 -40 0 -70 -4 -70 -10 0 -5 -7 -10 -15 -10
-20 0 -65 -45 -65 -65 0 -8 -4 -15 -10 -15 -5 0 -10 -9 -10 -20 0 -11 -4 -20
-10 -20 -5 0 -10 -7 -10 -15 0 -19 -64 -85 -82 -85 -8 0 -20 -9 -28 -20 -18
-26 -42 -26 -60 0 -8 11 -22 20 -32 20 -10 0 -18 5 -18 10 0 6 -9 10 -20 10
-11 0 -20 5 -20 10 0 6 -13 10 -30 10 -16 0 -30 5 -30 10 0 6 -9 10 -20 10
-11 0 -20 5 -20 10 0 6 -9 10 -20 10 -11 0 -20 5 -20 10 0 6 -13 10 -30 10
-16 0 -30 5 -30 10 0 6 -7 10 -15 10 -18 0 -65 44 -65 60 0 16 -47 60 -65 60
-8 0 -15 5 -15 10 0 6 -9 10 -20 10 -11 0 -20 5 -20 10 0 6 -13 10 -30 10 -16
0 -30 5 -30 10 0 6 -9 10 -20 10 -11 0 -20 5 -20 10 0 6 -13 10 -30 10 -16 0
-30 5 -30 10 0 6 -9 10 -20 10 -11 0 -20 5 -20 10 0 6 -9 10 -20 10 -11 0 -20
5 -20 10 0 6 -13 10 -30 10 -16 0 -30 5 -30 10 0 6 -9 10 -20 10 -11 0 -20 5
-20 10 0 6 -13 10 -30 10 -16 0 -30 5 -30 10 0 6 -9 10 -20 10 -11 0 -20 5
-20 10 0 6 -13 10 -30 10 -16 0 -30 5 -30 10 0 6 -9 10 -20 10 -11 0 -20 5
-20 10 0 6 -13 10 -30 10 -16 0 -30 5 -30 10 0 6 -9 10 -20 10 -11 0 -20 5
-20 10 0 6 -9 10 -20 10 -11 0 -20 5 -20 10 0 6 -13 10 -30 10 -16 0 -30 5
-30 10 0 6 -9 10 -20 10 -11 0 -20 5 -20 10 0 6 -13 10 -30 10 -16 0 -30 5
-30 10 0 6 -9 10 -20 10 -11 0 -20 5 -20 10 0 6 -13 10 -30 10 -16 0 -30 5
-30 10 0 6 -9 10 -20 10 -11 0 -20 5 -20 10 0 6 -9 10 -20 10 -11 0 -20 5 -20
10 0 6 -13 10 -30 10 -16 0 -30 5 -30 10 0 6 -9 10 -20 10 -11 0 -20 5 -20 10
0 6 -13 10 -30 10 -16 0 -30 5 -30 10 0 6 -9 10 -20 10 -11 0 -20 5 -20 10 0
6 -22 10 -50 10 -27 0 -50 -4 -50 -10 0 -5 -7 -10 -15 -10 -20 0 -65 -45 -65
-65 0 -8 -4 -15 -10 -15 -5 0 -10 -22 -10 -50 0 -27 5 -50 10 -50 6 0 10 -7
10 -15 0 -18 44 -65 60 -65 16 0 240 -228 240 -245 0 -11 -11 -15 -40 -15 -22
0 -40 -4 -40 -10 0 -5 -7 -10 -15 -10 -18 0 -85 -64 -85 -80 0 -17 -26 -40
-44 -40 -9 0 -16 -4 -16 -10 0 -6 -60 -10 -160 -10 l-160 0 0 40 c0 22 -4 40
-10 40 -5 0 -10 7 -10 15 0 17 -84 105 -100 105 -6 0 -105 95 -220 210 -115
116 -214 210 -220 210 -6 0 -51 41 -100 90 -49 50 -96 90 -105 90 -8 0 -15 5
-15 10 0 6 -22 10 -50 10 -27 0 -50 -4 -50 -10 0 -5 -7 -10 -15 -10 -20 0 -65
-45 -65 -65 0 -8 -4 -15 -10 -15 -6 0 -10 -100 -10 -280 l0 -280 -50 0 c-27 0
-50 -4 -50 -10 0 -5 -7 -10 -15 -10 -18 0 -85 -64 -85 -80 0 -17 -26 -40 -44
-40 -9 0 -16 -4 -16 -10 0 -6 -37 -10 -90 -10 l-90 0 0 40 c0 22 -4 40 -10 40
-6 0 -10 100 -10 280 0 180 4 280 10 280 6 0 10 113 10 320 0 207 -4 320 -10
320 -6 0 -10 117 -10 330 0 213 -4 330 -10 330 -5 0 -10 7 -10 15 0 20 -45 65
-65 65 -8 0 -15 5 -15 10 0 6 -9 10 -20 10 -11 0 -20 5 -20 10 0 6 -56 10
-148 10 -136 0 -149 2 -162 20 -8 11 -22 20 -32 20 -10 0 -18 5 -18 10 0 6
-13 10 -30 10 l-30 0 0 -1170z"/>
</g>
</svg>
